<svg width="46" height="41" viewBox="0 0 46 41" fill="none" xmlns="http://www.w3.org/2000/svg">
<g filter="url(#filter0_d_1_592)">
<g filter="url(#filter1_d_1_592)">
<path d="M30.4977 18.9583C35.1933 18.9584 38.9994 22.7648 38.9997 27.4603C38.9997 28.3994 38.2387 29.1614 37.2995 29.1614H19.3669C18.4279 29.1613 17.6667 28.3993 17.6667 27.4603C17.6669 22.7649 21.4733 18.9586 26.1686 18.9583H30.4977ZM28.4255 5.23077C31.2942 5.23077 33.6198 7.43462 33.6198 10.6107C33.6197 13.7866 31.2941 16.7318 28.4255 16.7318C25.5569 16.7317 23.2312 13.7866 23.2311 10.6107C23.2311 7.43465 25.5568 5.23082 28.4255 5.23077Z" fill="url(#paint0_linear_1_592)"/>
</g>
<g filter="url(#filter2_d_1_592)">
<path d="M21.1885 19.1797C26.3807 19.1799 30.5898 23.3888 30.5898 28.5811C30.5898 29.6195 29.7475 30.4619 28.709 30.4619H8.87988C7.84161 30.4617 7 29.6194 7 28.5811C7.00006 23.3888 11.2091 19.1799 16.4014 19.1797H21.1885ZM18.8975 4C22.0694 4.00001 24.6404 6.43654 24.6406 9.94824C24.6406 13.4602 22.0695 16.7178 18.8975 16.7178C15.7254 16.7178 13.1543 13.4602 13.1543 9.94824C13.1545 6.43653 15.7255 4 18.8975 4Z" fill="url(#paint1_linear_1_592)"/>
</g>
</g>
<defs>
<filter id="filter0_d_1_592" x="0" y="0" width="45.9997" height="40.4619" filterUnits="userSpaceOnUse" color-interpolation-filters="sRGB">
<feFlood flood-opacity="0" result="BackgroundImageFix"/>
<feColorMatrix in="SourceAlpha" type="matrix" values="0 0 0 0 0 0 0 0 0 0 0 0 0 0 0 0 0 0 127 0" result="hardAlpha"/>
<feOffset dy="3"/>
<feGaussianBlur stdDeviation="3.5"/>
<feComposite in2="hardAlpha" operator="out"/>
<feColorMatrix type="matrix" values="0 0 0 0 0 0 0 0 0 0 0 0 0 0 0 0 0 0 0.2 0"/>
<feBlend mode="normal" in2="BackgroundImageFix" result="effect1_dropShadow_1_592"/>
<feBlend mode="normal" in="SourceGraphic" in2="effect1_dropShadow_1_592" result="shape"/>
</filter>
<filter id="filter1_d_1_592" x="12.6667" y="2.23077" width="31.333" height="33.9307" filterUnits="userSpaceOnUse" color-interpolation-filters="sRGB">
<feFlood flood-opacity="0" result="BackgroundImageFix"/>
<feColorMatrix in="SourceAlpha" type="matrix" values="0 0 0 0 0 0 0 0 0 0 0 0 0 0 0 0 0 0 127 0" result="hardAlpha"/>
<feOffset dy="2"/>
<feGaussianBlur stdDeviation="2.5"/>
<feComposite in2="hardAlpha" operator="out"/>
<feColorMatrix type="matrix" values="0 0 0 0 0 0 0 0 0 0 0 0 0 0 0 0 0 0 0.05 0"/>
<feBlend mode="normal" in2="BackgroundImageFix" result="effect1_dropShadow_1_592"/>
<feBlend mode="normal" in="SourceGraphic" in2="effect1_dropShadow_1_592" result="shape"/>
</filter>
<filter id="filter2_d_1_592" x="2" y="1" width="33.5898" height="36.4619" filterUnits="userSpaceOnUse" color-interpolation-filters="sRGB">
<feFlood flood-opacity="0" result="BackgroundImageFix"/>
<feColorMatrix in="SourceAlpha" type="matrix" values="0 0 0 0 0 0 0 0 0 0 0 0 0 0 0 0 0 0 127 0" result="hardAlpha"/>
<feOffset dy="2"/>
<feGaussianBlur stdDeviation="2.5"/>
<feComposite in2="hardAlpha" operator="out"/>
<feColorMatrix type="matrix" values="0 0 0 0 0 0 0 0 0 0 0 0 0 0 0 0 0 0 0.05 0"/>
<feBlend mode="normal" in2="BackgroundImageFix" result="effect1_dropShadow_1_592"/>
<feBlend mode="normal" in="SourceGraphic" in2="effect1_dropShadow_1_592" result="shape"/>
</filter>
<linearGradient id="paint0_linear_1_592" x1="24.2307" y1="2.87177" x2="38.1798" y2="29.2307" gradientUnits="userSpaceOnUse">
<stop stop-color="#A2D7CF"/>
<stop offset="1" stop-color="#70CFBF"/>
</linearGradient>
<linearGradient id="paint1_linear_1_592" x1="8.02565" y1="2.87178" x2="31.8209" y2="31.4873" gradientUnits="userSpaceOnUse">
<stop stop-color="#6ABCFB"/>
<stop offset="1" stop-color="#3061C8"/>
</linearGradient>
</defs>
</svg>
